<svg xmlns="http://www.w3.org/2000/svg" viewBox="0 0 46 100">
    <path d="M44 39.7C38.7 16.5 27.8 10.3 25 6c-1.6-2.4-3.1-6-3.1-6-.1 2-.4 3.4-2.2 4.9C16.2 8 1.3 20.2.1 46.5-1.1 71 18.1 86.2 20.7 87.8c2 1 4.3 0 5.5-.9 9.2-6.3 21.9-23.3 17.8-47.2" fill="#10aa50"/>
    <path d="M22.7 74.7c-.5 6.1-.8 9.6-2.1 13.1A349.35 349.35 0 0 0 22 99.7h2c.7-6.9 2.2-12.8 2.2-12.8-2.6-1.3-3.4-6.9-3.5-12.2z" fill="#b8c4c2"/>
    <path d="M26.2 86.9h0c-2.6-1.2-3.4-6.9-3.5-12.2.6-7.2.9-16.5.6-26.2-.1-4.6.1-42.5-1.1-48 .5 1.1 1.7 3.6 2.8 5.5 2.8 4.4 13.7 10.5 19 33.7 4 23.9-8.5 40.8-17.8 47.2z" fill="#12924f"/>
</svg>
